<svg xmlns="http://www.w3.org/2000/svg" width="192" height="192" viewBox="0 0 192 192">
  <defs>
    <linearGradient id="bg" x1="0" y1="0" x2="1" y2="1">
      <stop offset="0%" stop-color="#ffd9c2"/>
      <stop offset="100%" stop-color="#ffc2a0"/>
    </linearGradient>
  </defs>
  <rect width="192" height="192" rx="42" fill="url(#bg)"/>
  <path d="M96 153c-1.8 0-3.6-.62-5.05-1.84C69 132.8 37 108.7 37 77.5 37 56.6 52.2 41 73.1 41c10 0 19.5 4.4 25.9 12 6.4-7.6 15.9-12 25.9-12C145.8 41 161 56.6 161 77.5c0 31.2-32 55.3-53.95 73.66A7.8 7.8 0 0 1 96 153z" fill="#d05b3d"/>
  <circle cx="148" cy="44" r="10" fill="#fff3e6" opacity=".85"/>
</svg>
