<svg xmlns="http://www.w3.org/2000/svg" width="512" height="512" viewBox="0 0 512 512">
  <defs>
    <linearGradient id="bg" x1="0" y1="0" x2="1" y2="1">
      <stop offset="0%" stop-color="#ffe8d7"/>
      <stop offset="100%" stop-color="#ffb89a"/>
    </linearGradient>
  </defs>
  <rect width="512" height="512" rx="114" fill="url(#bg)"/>
  <path d="M256 404c-4.7 0-9.5-1.65-13.25-4.9C185.5 351.2 100 286.8 100 203.5 100 147.8 140.6 106 196.4 106c26.6 0 51.9 11.7 68.9 31.9 17-20.2 42.3-31.9 68.9-31.9C389.9 106 430 147.8 430 203.5c0 83.3-85.5 147.7-142.75 195.6a20.8 20.8 0 0 1-13.25 4.9z" fill="#d05b3d"/>
  <circle cx="386" cy="116" r="28" fill="#fff7ef" opacity=".85"/>
  <circle cx="346" cy="82" r="12" fill="#fff7ef" opacity=".8"/>
</svg>
